# xmcd
# 
# Track frame offsets:
#     150
#     27525
#     53587
#     72562
#     100432
#     123627
#     153900
#     180547
#     199897
# 
# Disc length: 2927
# 
# Revision: 1
# Processed by: cddbd v1.5.2PL0 Copyright (c) Steve Scherf et al.
# Submitted via: BonkEnc v1.0.6
# 
DISCID=800b6d09
DTITLE=笹路正徳 - Birdland
DYEAR=2002
DGENRE=Big Band
TTITLE0=Birdland
TTITLE1=Girl Talk
TTITLE2=Green Flower Street
TTITLE3=My Favoriete Things
TTITLE4=Freedom Jazz Dance
TTITLE5=Interplay
TTITLE6=The Sidewinder
TTITLE7=The Look of Love
TTITLE8=Gymno Pedie
EXTD=
EXTT0=
EXTT1=
EXTT2=
EXTT3=
EXTT4=
EXTT5=
EXTT6=
EXTT7=
EXTT8=
PLAYORDER=
